PathFileType	4	(X/Y/Z)	Patient4_TMGait_0pt2_01_left_13.trc.trc
DataRate	CameraRate	NumFrames	NumMarkers	Units	OrigDataRate	OrigDataStartFrame	OrigNumFrames
41.916167664671	41.916167664671	4	33	mm	41.916167664671	1	       141
Frame#	Time	Sacral			L.Shoulder			Chest			R.Shoulder			Neck			R.ASIS			L.ASIS			R.Thigh.Superior			R.Thigh.Lateral			R.Thigh.Inferior			R.Patella			L.Thigh.Superior			L.Thigh.Lateral			L.Thigh.Inferior			L.Patella			L.Shank.Superior			L.Shank.Lateral			L.Shank.Inferior			R.Shank.Superior			R.Shank.Lateral			R.Shank.Inferior			R.Heel			R.Midfoot.Superior			R.Midfoot.Lateral			R.Toe			L.Heel			L.Midfoot.Lateral			L.Midfoot.Superior			L.Toe			L.Elbow			L.Wrist			R.Elbow			R.Wrist			
		X1	Y1	Z1	X2	Y2	Z2	X3	Y3	Z3	X4	Y4	Z4	X5	Y5	Z5	X6	Y6	Z6	X7	Y7	Z7	X8	Y8	Z8	X9	Y9	Z9	X10	Y10	Z10	X11	Y11	Z11	X12	Y12	Z12	X13	Y13	Z13	X14	Y14	Z14	X15	Y15	Z15	X16	Y16	Z16	X17	Y17	Z17	X18	Y18	Z18	X19	Y19	Z19	X20	Y20	Z20	X21	Y21	Z21	X22	Y22	Z22	X23	Y23	Z23	X24	Y24	Z24	X25	Y25	Z25	X26	Y26	Z26	X27	Y27	Z27	X28	Y28	Z28	X29	Y29	Z29	X30	Y30	Z30	X31	Y31	Z31	X32	Y32	Z32	X33	Y33	Z33	

1	29.500000000000	724.834934031623	998.716689096574	611.919525815161	919.163259909035	1418.282611518716	424.430872757155	1015.599740636243	1352.232676093920	590.460177974132	927.890455464006	1431.817109290635	760.229638990054	906.247523688832	1485.430041722590	579.068651512071	955.485781598423	930.678639193164	730.837551197727	941.175153117489	954.330458877978	457.686938091214	1009.704654190896	735.711809890271	677.269132088834	938.208799526925	614.949618180740	728.215502930861	1010.722494834015	574.150601118645	637.341500661287	1016.623519249374	479.942523110667	634.405536596218	1023.839581778578	767.711448334875	488.923461186682	980.693355410622	643.554563023842	405.614003717746	1077.313996801664	577.056562628552	476.951906024531	1084.257377733208	484.139421011614	464.193658341002	1006.671714460188	427.215876634602	444.253314944595	862.433179059461	418.279363212449	384.070936969045	821.986148604315	289.034330438423	422.982504772627	975.328567190303	391.803867124557	638.422641372708	899.715847551083	293.288528180952	704.709324122239	918.437387035267	199.837927221504	632.213788852030	761.718092862142	44.229405263474	613.541944354838	937.297769879884	96.850341210805	633.717504154339	851.474913397744	37.438403230100	680.031831676631	1058.107242615325	42.500201166980	650.272877891732	620.399779850076	258.462121574776	445.557626555952	673.359052195613	213.450585488205	361.447993397691	776.811546447992	197.251337375986	386.511963118883	833.563030844174	75.956442996144	344.415167040727	849.172404415984	1068.006851429355	321.192592368387	873.571672898733	809.234733751500	323.575394710395	978.596126497734	1107.278801821720	918.539733420172	1232.394260186169	1068.294542739242	916.903173973434	
2	29.523857142857	722.577853123715	994.834060941115	616.131219742804	913.365314425819	1415.110465439366	426.196776347721	1012.167167343431	1349.168028185826	590.772079626828	926.874105377708	1428.710387662867	761.706433933790	902.116423883186	1482.334493896976	580.914342993846	954.868436020679	927.660279216061	731.249347055399	936.654079091424	951.894835220560	458.397943592652	1010.096557610011	733.777698458509	675.748730035673	941.129137533857	612.041722576128	727.134004772577	1012.857591601195	572.436350082883	634.957726451837	1019.446344429217	477.318349527545	631.771893342734	1021.379607672908	766.762764381165	489.241600037320	979.245632987429	642.418791785884	405.912444039976	1076.144162686405	576.554011599850	477.320763522997	1084.663134957111	484.408830255404	463.882756985505	1009.608657388431	426.023732659121	443.104849856781	866.086904618606	410.442263117679	383.792987755073	833.217352823308	279.080672917458	421.021462127029	976.473523559615	389.209558294183	636.400175691307	899.698664825715	292.019244164682	703.357699819504	915.995630711887	198.354786647992	631.139128613203	757.114186958744	44.228431591273	613.517038612255	932.643928654871	96.699013015391	633.434991566080	846.814117420256	37.462803645067	679.991849254568	1053.500564972437	42.366031373040	650.257466749258	634.700357173643	236.548268549438	444.646532411718	689.116768971949	196.540878630694	359.456879832594	792.976323958361	186.602824208684	383.676842268591	856.350762288092	70.576362371904	339.116319714178	836.997178990825	1067.457606609268	321.477353247724	853.998190412264	808.354363101376	322.419655733405	989.764638590765	1108.085217066702	919.823519326403	1242.610579703471	1087.942401892326	911.415333713209	
3	29.547714285714	720.173797050382	991.059519703038	620.451064985601	907.183610994389	1412.118090046193	428.059639555084	1008.556582905271	1346.201572610020	590.997963731433	925.923047442767	1425.610729451934	763.215447613859	897.784225335425	1479.337662229704	582.869042637247	954.204994100870	924.671734271330	731.501105445724	931.826947647108	949.561281391152	459.006571252611	1010.281859582013	731.826932293375	674.118810539456	943.806688969263	609.190894596946	726.015044617836	1014.685287167605	570.717817563246	632.527663206619	1021.919857193508	474.720885337563	629.125454859220	1018.521036133302	765.896655346599	489.278315541401	977.322041510858	641.390290343718	405.909942616163	1074.608735664451	576.208353038369	477.199240210068	1084.809406461799	484.964556921482	463.084501166635	1012.555318951042	425.020708947746	441.544193049431	870.079128641966	402.182633128291	383.100032828532	845.405246007260	268.867514899114	418.743823840074	977.304931012054	386.655013091924	634.378767258679	899.399966613706	290.772030291137	702.021750307557	913.298352405540	196.888981961684	630.071371354652	752.294854943045	44.239827303789	613.488481483711	927.775629861588	96.544583565669	633.158747035812	841.938665705469	37.490503057117	679.953441310961	1048.674893590543	42.214445426531	650.243282947153	650.558495393240	213.659426246590	443.384145147159	706.454972143980	178.861040044644	357.164256365002	810.522900610123	175.631849693951	380.583998045363	880.828488515842	65.345018099977	333.683288705313	824.512243171105	1067.086629859088	321.910612700767	834.669271586559	807.645727098502	321.519071103017	1001.585477318105	1109.161604580280	920.787585258699	1252.921733176163	1108.317700844872	905.292689160383	
4	29.571571428571	717.666020164192	987.644810212277	624.722017304196	900.733606329992	1409.546461262281	429.968920931706	1004.849564633054	1343.545160847635	591.084949449085	925.098617808807	1422.705708235483	764.685450072059	893.349632555311	1476.648968299268	584.882019747744	953.493676740947	921.893915950107	731.516743729250	926.783360773560	947.520492407498	459.442026403083	1010.133984180963	729.958707635110	672.423884690591	945.965861261703	606.570787756365	724.905841093194	1015.947604298100	569.084410489437	630.162421424382	1023.730685831223	472.295854707451	626.600339012272	1015.223589355977	765.211672791138	488.917876564441	974.784019043183	640.584224032661	405.487148176829	1072.582319957879	576.105612197940	476.396584900923	1084.528763402873	485.916765335486	461.655054418384	1015.329662320052	424.356143319355	439.493028140628	874.354545469929	393.751196959254	381.826618169826	858.345998249725	258.802936128319	416.101762692548	977.604008928191	384.291097203579	632.466854352051	898.667572391827	289.620884056237	700.777665940819	910.328661532391	195.525478451174	629.069925196071	747.366473916124	44.266695169041	613.457594628906	922.801738838135	96.394236881860	632.904993304521	836.957663380319	37.520000509104	679.917548767255	1043.736254968226	42.048573421405	650.231600118780	667.849372286834	190.534941298613	441.623250899515	725.223585509650	160.984984536524	354.512727096065	829.199053968712	164.770102755141	377.256360340906	906.554096088250	60.606475604952	328.341584285736	812.154410515248	1067.011049705736	322.529467501437	816.524063782323	807.239143925102	321.034614931593	1013.792711775929	1110.627726157001	921.226102196369	1262.905655323823	1128.868451258400	898.511598590901	
